<?xml version="1.0" encoding="UTF-8" standalone="no"?>
<!-- Created with Inkscape (http://www.inkscape.org/) -->

<svg
   xmlns:dc="http://purl.org/dc/elements/1.1/"
   xmlns:cc="http://creativecommons.org/ns#"
   xmlns:rdf="http://www.w3.org/1999/02/22-rdf-syntax-ns#"
   xmlns:svg="http://www.w3.org/2000/svg"
   xmlns="http://www.w3.org/2000/svg"
   xmlns:sodipodi="http://sodipodi.sourceforge.net/DTD/sodipodi-0.dtd"
   xmlns:inkscape="http://www.inkscape.org/namespaces/inkscape"
   width="210mm"
   height="297mm"
   viewBox="0 0 210 297"
   version="1.1"
   id="svg8"
   inkscape:version="0.92.2 (5c3e80d, 2017-08-06)"
   sodipodi:docname="worktime.svg">
  <defs
     id="defs2" />
  <sodipodi:namedview
     id="base"
     pagecolor="#ffffff"
     bordercolor="#666666"
     borderopacity="1.0"
     inkscape:pageopacity="0.0"
     inkscape:pageshadow="2"
     inkscape:zoom="0.7"
     inkscape:cx="433.17901"
     inkscape:cy="614.73365"
     inkscape:document-units="mm"
     inkscape:current-layer="layer1"
     showgrid="false"
     inkscape:window-width="1920"
     inkscape:window-height="1017"
     inkscape:window-x="-8"
     inkscape:window-y="-8"
     inkscape:window-maximized="1" />
  <metadata
     id="metadata5">
    <rdf:RDF>
      <cc:Work
         rdf:about="">
        <dc:format>image/svg+xml</dc:format>
        <dc:type
           rdf:resource="http://purl.org/dc/dcmitype/StillImage" />
        <dc:title />
      </cc:Work>
    </rdf:RDF>
  </metadata>
  <g
     inkscape:label="Layer 1"
     inkscape:groupmode="layer"
     id="layer1">
    <path
       style="fill:#000000;stroke-width:0.24391493"
       d="m 106.82211,205.21413 c -11.915787,-0.62368 -23.095047,-4.62891 -32.521627,-11.65162 -2.25632,-1.68094 -6.91142,-6.07138 -8.70238,-8.20763 -6.531,-7.79012 -10.79336,-17.44618 -12.02571,-27.24336 -0.40585,-3.22658 -0.34462,-9.83807 0.12179,-13.14822 0.46705,-3.31472 1.55092,-7.56054 2.78194,-10.89763 1.95562,-5.30132 5.90708,-11.88794 9.57624,-15.9624 2.54503,-2.82616 2.92523,-2.51542 -3.085,-2.52138 -5.90099,-0.006 -6.5886,-0.15204 -8.03745,-1.70871 -2.10195,-2.25838 -1.41199,-5.78915 1.42431,-7.28848 l 1.12038,-0.59227 11.42651,-0.076 c 8.03818,-0.0534 11.82506,0.006 12.77051,0.20007 1.64948,0.33869 3.1079,1.49861 3.66064,2.91144 0.37783,0.96575 2.15264,17.94903 2.15264,20.59877 0,2.36297 -1.78272,4.39203 -4.24106,4.82707 -1.13902,0.2016 -2.93066,-0.25202 -3.98129,-1.00797 -1.46499,-1.05411 -1.77988,-2.00034 -2.21412,-6.65347 -0.21642,-2.31916 -0.4761,-4.41602 -0.57707,-4.65969 -0.15537,-0.37504 -0.42579,-0.17511 -1.76224,1.30298 -12.84885,14.21045 -14.86451,34.63336 -4.98162,50.47447 7.00044,11.2209 18.61101,18.81626 32.197517,21.0629 4.60666,0.76176 10.96353,0.76176 15.5702,0 17.4386,-2.8836 31.47078,-14.60302 36.54713,-30.52352 1.93973,-6.08336 2.42829,-13.63268 1.28054,-19.78747 -1.64474,-8.82015 -5.83293,-16.64388 -12.29844,-22.97421 -9.81017,-9.60505 -23.00807,-14.28928 -37.26736,-13.22702 -2.27708,0.16964 -4.40988,0.23266 -4.73952,0.14004 -1.233037,-0.34642 -2.472067,-1.37018 -3.102347,-2.56334 -1.06378,-2.01374 -0.7359,-3.87244 0.96636,-5.47827 1.288417,-1.215417 2.096147,-1.433747 6.684847,-1.806812 16.29408,-1.324726 33.33046,4.813172 44.83195,16.152142 13.77568,13.58101 18.95594,32.45012 13.93715,50.7661 -2.47014,9.01472 -7.43226,17.10495 -14.69143,23.95288 -8.46102,7.98166 -18.67222,12.98549 -30.41402,14.90386 -2.31314,0.37791 -8.60185,0.87411 -10.1478,0.80069 -0.48342,-0.0229 -1.50052,-0.0744 -2.2602,-0.11409 z m 19.46275,-31.63343 c -0.85777,-0.2103 -2.51796,-1.6688 -11.36374,-9.98335 l -10.3592,-9.73708 0.001,-16.94522 c 9.6e-4,-11.21528 0.0914,-17.25129 0.26786,-17.85039 0.14655,-0.49783 0.66163,-1.31781 1.14466,-1.82217 2.40803,-2.5144 6.63612,-2.04127 8.29818,0.92859 l 0.58433,1.0441 v 15.3037 15.30367 l 8.30363,7.81652 c 4.56698,4.29908 8.57039,8.24294 8.89648,8.76414 0.78798,1.25947 0.98583,2.42384 0.62759,3.69352 -0.74701,2.64716 -3.56304,4.17985 -6.40128,3.48397 z"
       id="path826"
       inkscape:connector-curvature="0" />
  </g>
</svg>
